<svg width="44" height="49" viewBox="0 0 44 49" fill="none" xmlns="http://www.w3.org/2000/svg">
<g id="a" filter="url(#filter0_d_1444_595)">
<path d="M5.74389 17.296C6.96789 10.672 12.5119 4.47998 22.3039 4.47998C32.5999 4.47998 39.0079 9.73598 39.0079 21.112V32.92C39.0079 35.8 39.0799 40.264 39.7279 43H28.8559C28.6399 42.136 28.4959 40.84 28.4959 40.192V38.032H28.4239C26.5519 41.128 23.3839 44.08 17.1919 44.08C9.55989 44.08 4.08789 39.688 4.08789 32.848C4.08789 22.84 15.6799 21.328 20.6479 20.68C25.3279 20.104 28.2079 19.816 28.2079 16.576C28.2079 13.768 25.7599 12.4 22.3039 12.4C19.1359 12.4 16.8319 14.2 15.8959 17.296H5.74389ZM15.1759 32.128C15.1759 34.216 16.6159 36.232 20.6479 36.232C24.6799 36.232 28.3519 34 28.3519 25.72L28.2799 23.776C27.3439 25.288 25.3279 26.584 21.4399 27.448C16.7599 28.456 15.1759 29.968 15.1759 32.128Z" fill="white"/>
</g>
<defs>
<filter id="filter0_d_1444_595" x="0.0878906" y="0.47998" width="43.6406" height="47.6001" filterUnits="userSpaceOnUse" color-interpolation-filters="sRGB">
<feFlood flood-opacity="0" result="BackgroundImageFix"/>
<feColorMatrix in="SourceAlpha" type="matrix" values="0 0 0 0 0 0 0 0 0 0 0 0 0 0 0 0 0 0 127 0" result="hardAlpha"/>
<feMorphology radius="4" operator="dilate" in="SourceAlpha" result="effect1_dropShadow_1444_595"/>
<feOffset/>
<feComposite in2="hardAlpha" operator="out"/>
<feColorMatrix type="matrix" values="0 0 0 0 1 0 0 0 0 1 0 0 0 0 1 0 0 0 1 0"/>
<feBlend mode="normal" in2="BackgroundImageFix" result="effect1_dropShadow_1444_595"/>
<feBlend mode="normal" in="SourceGraphic" in2="effect1_dropShadow_1444_595" result="shape"/>
</filter>
</defs>
</svg>
