<svg width="56" height="56" viewBox="0 0 56 56" fill="none" xmlns="http://www.w3.org/2000/svg">
<rect width="56" height="56" fill="#D5D5D5"/>
<g id="Coming soon page">
<rect width="1440" height="900" transform="translate(-426 -178)" fill="black"/>
<g id="Frame 14036867">
<g clip-path="url(#clip0_394_318)">
<rect width="56" height="56" rx="11.2" fill="white"/>
<g id="Group 8995">
<path id="Vector" d="M56.3554 13.4162C66.1497 16.88 77.1073 25.4532 73.6456 47.375C73.1218 49.7127 72.1683 52.4975 69.7163 55.8435C68.3983 57.6451 67.0342 59.1991 66.1497 60.1603L69.3269 66.2978C70.5778 68.7133 70.691 71.5221 69.6415 74.0067C64.7377 85.6063 57.7061 90.2109 53.9534 91.9223C53.2262 92.2542 52.4569 92.4173 51.6952 92.4173C50.7014 92.4173 49.7191 92.1391 48.8596 91.5904L37.9755 84.9982C34.5547 86.3181 31.3526 86.98 28.4057 86.98C23.828 86.9819 19.868 85.3876 16.6602 82.2066C11.1731 76.7656 10.0967 66.9329 13.4312 52.9484C8.91874 51.686 5.59961 47.54 5.59961 42.6323C5.59961 36.725 10.4056 31.9189 16.3129 31.9189C17.6943 31.9189 19.0123 32.1837 20.2249 32.6614C21.3089 30.0714 22.2566 27.9955 22.8898 26.6544C21.2494 26.0136 19.9735 24.991 19.0718 23.5885C17.913 21.787 17.6003 19.5614 18.2142 17.4855C18.8454 15.354 20.3688 13.6062 22.3948 12.6891C24.9215 11.5476 29.152 10.1278 34.971 9.84962C41.5767 9.53305 48.7713 10.7341 56.3554 13.4162Z" fill="white" stroke="white" stroke-width="3.83714" stroke-miterlimit="10" stroke-linecap="round"/>
<path id="Vector_2" d="M46.5869 28.405C46.5869 28.405 50.8909 29.3619 52.8275 34.7009" stroke="#030303" stroke-width="3.81221" stroke-miterlimit="10" stroke-linecap="round"/>
<g id="Group">
<path id="Vector_3" d="M73.6773 36.1518C72.9091 25.7941 66.0757 16.8602 56.2707 13.393C48.7359 10.7283 41.5899 9.53503 35.0253 9.84954C29.2441 10.1259 25.0411 11.5364 22.5327 12.6706C20.518 13.5817 19.0045 15.3181 18.3793 17.4358C17.7694 19.4982 18.08 21.7093 19.2313 23.4991C20.1272 24.8925 21.3948 25.9104 23.0264 26.547C22.3974 27.8794 21.4558 29.9418 20.3769 32.5131C19.1722 32.0385 17.8608 31.7773 16.4904 31.7773C10.6215 31.7773 5.84668 36.5502 5.84668 42.4191C5.84668 47.2949 9.14424 51.4178 13.6255 52.6701C10.3108 66.5656 11.3858 76.3306 16.8354 81.7363C20.0224 84.8985 23.9566 86.4806 28.5045 86.4806C31.4323 86.4806 34.6136 85.8249 38.0122 84.5116L48.8274 91.059C49.6813 91.6042 50.6572 91.8806 51.6427 91.8806C52.4013 91.8806 53.1657 91.7185 53.8862 91.3907C57.6145 89.6885 64.6004 85.1139 69.4724 73.5915C70.5169 71.1231 70.4026 68.3307 69.1598 65.9309L66.0052 59.8333C66.8839 58.8783 68.2391 57.3344 69.5486 55.5445C71.9846 52.2203 73.2751 49.4469 73.4523 47.1329C73.4752 47.0433 73.4905 46.9518 73.5 46.8584C73.8621 43.05 73.9212 39.4475 73.6773 36.1518ZM26.8805 27.3209C28.5179 27.4143 30.3649 27.2789 32.4216 26.9187C34.6098 26.5356 36.7599 26.0876 38.8394 25.6549C50.3847 23.2552 57.0255 22.2411 59.2462 29.3051C59.9762 31.6249 59.9838 34.1466 59.2709 36.6036C58.8363 38.0999 58.3789 39.8097 57.9938 41.548L50.9603 39.0701C49.4964 33.8798 44.7197 30.0657 39.0681 30.0657C34.1313 30.0657 29.8617 32.9763 27.885 37.1716L25.7426 37.1621C25.1879 36.19 24.4846 35.3132 23.663 34.5622C25.0888 31.1197 26.303 28.5217 26.8805 27.3209ZM18.5509 63.3767C18.7605 64.5223 19.5668 66.1082 22.222 67.1451C22.7119 67.3357 23.2494 67.5015 23.8212 67.6349C23.7355 67.6788 23.6497 67.7207 23.5639 67.7626C22.1782 68.4584 20.983 69.0607 19.7326 68.9711C17.8361 68.8377 16.3169 67.0269 15.7984 65.3076C15.7527 65.1551 15.686 65.0121 15.6078 64.8806V64.8768C15.787 61.0055 16.517 56.8979 17.4625 53.0151C18.4517 52.9275 19.401 52.7006 20.293 52.3575C19.0388 56.57 18.0972 60.8988 18.5489 63.3748L18.5509 63.3767ZM16.4904 35.5895C17.3557 35.5895 18.183 35.7516 18.9454 36.047C20.2225 36.5388 21.3147 37.4042 22.0886 38.5097C22.8663 39.6171 23.3218 40.9667 23.3218 42.4191C23.3218 42.9986 23.2494 43.5628 23.1122 44.1003C22.9501 44.5254 22.7805 44.9809 22.6051 45.4632C21.7855 47.1024 20.3273 48.3681 18.5585 48.9304C17.9047 49.1381 17.2109 49.2506 16.4904 49.2506C15.827 49.2506 15.1866 49.1553 14.5804 48.978C11.7403 48.1508 9.65889 45.5222 9.65889 42.4191C9.65889 38.6527 12.7239 35.5895 16.4904 35.5895ZM39.0681 33.8779C43.7781 33.8779 47.6094 37.7091 47.6094 42.4191C47.6094 47.1291 43.7781 50.9623 39.0681 50.9623C34.3582 50.9623 30.5269 47.1291 30.5269 42.4191C30.5269 37.7091 34.3582 33.8779 39.0681 33.8779ZM66.5008 53.2572C64.5222 55.9639 62.3607 58.1349 62.3398 58.1559L61.3543 59.1413L65.7746 67.6826C66.4951 69.0741 66.5618 70.6847 65.9614 72.1067C64.0857 76.5422 59.818 84.4944 52.3041 87.9216C51.8295 88.137 51.2805 88.1065 50.8707 87.8415L42.2266 82.6055C42.3524 82.5426 42.4801 82.4759 42.6059 82.4091C50.3313 78.3396 56.2631 72.6899 56.5128 72.4517C57.2714 71.7235 57.2962 70.517 56.5681 69.7583C55.8399 68.9978 54.6334 68.9711 53.8748 69.6993C53.8176 69.7545 48.0306 75.2555 40.7684 79.0677C39.6838 79.6377 38.6259 80.1409 37.5985 80.5755C37.5947 80.5774 37.5909 80.5774 37.589 80.5793C37.4994 80.6098 37.4117 80.6441 37.3279 80.6879C29.7683 83.8158 23.7869 83.2631 19.5211 79.0296C17.6131 77.1388 16.5037 74.5484 15.9681 71.5634C17.0374 72.2572 18.2363 72.688 19.4677 72.7757C21.7588 72.9339 23.6268 71.998 25.2756 71.1708C27.0826 70.2635 28.2586 69.7259 29.6215 70.0976C30.4373 70.3206 31.255 70.7895 32.1223 71.287C32.6141 71.5691 33.1211 71.8608 33.6624 72.1257C35.6943 73.1264 37.9569 73.6449 40.2194 73.6449C41.0505 73.6449 41.8835 73.5744 42.7031 73.4333C44.8093 73.0692 46.5534 72.2877 47.8896 71.106C49.9672 69.2666 50.8307 66.3617 50.2017 63.3329C49.9882 62.3017 48.978 61.6403 47.9468 61.8556C46.9156 62.0691 46.2542 63.0794 46.4695 64.1106C46.6373 64.913 46.8641 66.924 45.364 68.2525C44.5787 68.9482 43.435 69.44 42.0569 69.6783C39.7925 70.069 37.4098 69.724 35.3493 68.7081C34.9167 68.4946 34.4802 68.2449 34.0208 67.9799C33.733 67.8141 33.4413 67.6483 33.144 67.4863C34.8233 67.0536 36.3767 66.3864 37.6043 65.4601C38.2886 64.9435 38.7136 64.1735 38.8013 63.2871C39.0586 60.6777 36.2776 57.4697 35.9593 57.1133C35.2578 56.326 34.0551 56.2574 33.2679 56.957C32.4826 57.6565 32.412 58.8631 33.1116 59.6484C33.9045 60.5385 34.7584 61.9509 34.9605 62.6581C32.0613 64.5299 26.5146 64.7281 23.6116 63.594C22.607 63.2014 22.3249 62.8011 22.304 62.6924C21.8217 60.0429 23.9699 52.8626 26.12 46.9594C26.3773 46.4162 26.5908 45.8463 26.7528 45.2573C26.8157 45.0896 26.8786 44.9237 26.9415 44.7617C28.0394 50.4571 33.0601 54.7745 39.072 54.7745C45.6004 54.7745 50.9622 49.6833 51.3968 43.2635L57.3057 45.345C57.0942 46.9004 57.0046 48.3623 57.1132 49.5861C57.2028 50.5982 58.0015 51.4026 59.0117 51.4979C60.02 51.5951 60.9578 50.9565 61.238 49.9806C61.6688 48.4748 63.3424 46.2694 65.3972 45.1887C66.1043 44.8151 67.1469 44.4377 68.0886 44.7541C69.4076 45.1944 69.5486 45.7986 69.6096 46.056C69.7678 46.725 69.7812 48.7683 66.5046 53.2553L66.5008 53.2572ZM70.0023 41.4127C69.7812 41.3155 69.5467 41.224 69.297 41.1401C67.5396 40.553 65.5763 40.7856 63.6168 41.8168C62.9001 42.1942 62.1968 42.6783 61.5354 43.2349C61.8766 41.5614 62.3455 39.6819 62.9306 37.6672C63.8551 34.4859 63.838 31.1998 62.883 28.1615C61.3429 23.2609 58.072 20.6362 52.8817 20.1349C52.2469 20.0739 51.5932 20.0453 50.9203 20.0453C47.0928 20.0453 42.6859 20.9621 38.0636 21.9228C36.0127 22.3498 33.8912 22.7901 31.764 23.1637C28.394 23.7546 24.0423 23.9356 22.4393 21.4386C21.8789 20.5676 21.736 19.5306 22.0352 18.5166C22.3459 17.4625 23.1007 16.5971 24.1033 16.1435C28.7771 14.0296 39.0052 11.3287 54.9994 16.986C63.3805 19.95 69.2189 27.5839 69.8765 36.434C69.9928 38.0179 70.0347 39.6819 70.0023 41.4127Z" fill="#030303"/>
</g>
</g>
</g>
</g>
</g>
<defs>
<clipPath id="clip0_394_318">
<rect width="56" height="56" rx="11.2" fill="white"/>
</clipPath>
</defs>
</svg>
